solid boxBracket
facet normal 0.0 0.0 -1.0
  outer loop
    vertex 0.0 15.0 0.0
    vertex 8.677733935462983 10.052173323723924 1.4099832412739487e-15
    vertex 0.0 0.0 0.0
  endloop
endfacet
facet normal 0.0 0.0 -1.0
  outer loop
    vertex 8.677733935462983 10.052173323723924 1.4099832412739487e-15
    vertex 0.0 15.0 0.0
    vertex 15.0 15.0 0.0
  endloop
endfacet
facet normal 0.0 0.0 -1.0
  outer loop
    vertex 0.0 0.0 0.0
    vertex 8.677733935462983 10.052173323723924 1.4099832412739487e-15
    vertex 8.471139726085726 9.78293450818141 1.4099832412739487e-15
  endloop
endfacet
facet normal 0.0 0.0 -1.0
  outer loop
    vertex 0.0 0.0 0.0
    vertex 8.471139726085726 9.78293450818141 1.4099832412739487e-15
    vertex 8.341269176829705 9.469399266814687 1.4099832412739487e-15
  endloop
endfacet
facet normal 0.0 0.0 -1.0
  outer loop
    vertex 0.0 0.0 0.0
    vertex 8.341269176829705 9.469399266814687 1.4099832412739487e-15
    vertex 8.296972751005494 9.132934508181412 1.4099832412739487e-15
  endloop
endfacet
facet normal 0.0 0.0 -1.0
  outer loop
    vertex 8.677733935462983 10.052173323723924 1.4099832412739487e-15
    vertex 15.0 15.0 0.0
    vertex 8.946972751005495 10.258767533101182 1.4099832412739487e-15
  endloop
endfacet
facet normal 0.0 0.0 -1.0
  outer loop
    vertex 8.946972751005495 10.258767533101182 1.4099832412739487e-15
    vertex 15.0 15.0 0.0
    vertex 9.260507992372217 10.3886380823572 1.4099832412739487e-15
  endloop
endfacet
facet normal 0.0 0.0 -1.0
  outer loop
    vertex 9.260507992372217 10.3886380823572 1.4099832412739487e-15
    vertex 15.0 15.0 0.0
    vertex 9.596972751005495 10.432934508181411 1.4099832412739487e-15
  endloop
endfacet
facet normal 0.0 0.0 -1.0
  outer loop
    vertex 9.596972751005495 10.432934508181411 1.4099832412739487e-15
    vertex 15.0 15.0 0.0
    vertex 9.933437509638773 10.3886380823572 1.4099832412739487e-15
  endloop
endfacet
facet normal 0.0 0.0 -1.0
  outer loop
    vertex 9.933437509638773 10.3886380823572 1.4099832412739487e-15
    vertex 15.0 15.0 0.0
    vertex 10.246972751005496 10.258767533101182 1.4099832412739487e-15
  endloop
endfacet
facet normal 0.0 0.0 -1.0
  outer loop
    vertex 10.246972751005496 10.258767533101182 1.4099832412739487e-15
    vertex 15.0 15.0 0.0
    vertex 10.516211566548009 10.052173323723924 1.4099832412739487e-15
  endloop
endfacet
facet normal 0.0 0.0 -1.0
  outer loop
    vertex 10.516211566548009 10.052173323723924 1.4099832412739487e-15
    vertex 15.0 15.0 0.0
    vertex 10.722805775925266 9.78293450818141 1.4099832412739487e-15
  endloop
endfacet
facet normal 0.0 0.0 -1.0
  outer loop
    vertex 10.722805775925266 9.78293450818141 1.4099832412739487e-15
    vertex 15.0 15.0 0.0
    vertex 10.852676325181285 9.469399266814689 1.4099832412739487e-15
  endloop
endfacet
facet normal 0.0 0.0 -1.0
  outer loop
    vertex 10.852676325181285 9.469399266814689 1.4099832412739487e-15
    vertex 15.0 15.0 0.0
    vertex 10.896972751005496 9.132934508181412 1.4099832412739487e-15
  endloop
endfacet
facet normal 0.0 0.0 -1.0
  outer loop
    vertex 0.0 0.0 0.0
    vertex 8.677733935462985 8.213695692638899 1.4099832412739487e-15
    vertex 15.0 0.0 0.0
  endloop
endfacet
facet normal 0.0 0.0 -1.0
  outer loop
    vertex 8.677733935462985 8.213695692638899 1.4099832412739487e-15
    vertex 0.0 0.0 0.0
    vertex 8.471139726085726 8.482934508181412 1.4099832412739487e-15
  endloop
endfacet
facet normal 0.0 0.0 -1.0
  outer loop
    vertex 8.471139726085726 8.482934508181412 1.4099832412739487e-15
    vertex 0.0 0.0 0.0
    vertex 8.341269176829705 8.796469749548134 1.4099832412739487e-15
  endloop
endfacet
facet normal 0.0 0.0 -1.0
  outer loop
    vertex 8.341269176829705 8.796469749548134 1.4099832412739487e-15
    vertex 0.0 0.0 0.0
    vertex 8.296972751005494 9.132934508181412 1.4099832412739487e-15
  endloop
endfacet
facet normal 0.0 0.0 -1.0
  outer loop
    vertex 15.0 0.0 0.0
    vertex 8.677733935462985 8.213695692638899 1.4099832412739487e-15
    vertex 8.946972751005495 8.007101483261641 1.4099832412739487e-15
  endloop
endfacet
facet normal 0.0 0.0 -1.0
  outer loop
    vertex 15.0 0.0 0.0
    vertex 8.946972751005495 8.007101483261641 1.4099832412739487e-15
    vertex 9.26050799237222 7.877230934005621 1.4099832412739487e-15
  endloop
endfacet
facet normal 0.0 0.0 -1.0
  outer loop
    vertex 15.0 0.0 0.0
    vertex 9.26050799237222 7.877230934005621 1.4099832412739487e-15
    vertex 9.596972751005495 7.832934508181411 1.4099832412739487e-15
  endloop
endfacet
facet normal 0.0 0.0 -1.0
  outer loop
    vertex 15.0 0.0 0.0
    vertex 9.596972751005495 7.832934508181411 1.4099832412739487e-15
    vertex 9.933437509638773 7.877230934005623 1.4099832412739487e-15
  endloop
endfacet
facet normal 0.0 0.0 -1.0
  outer loop
    vertex 15.0 0.0 0.0
    vertex 9.933437509638773 7.877230934005623 1.4099832412739487e-15
    vertex 10.246972751005496 8.007101483261641 1.4099832412739487e-15
  endloop
endfacet
facet normal 0.0 0.0 -1.0
  outer loop
    vertex 15.0 0.0 0.0
    vertex 10.246972751005496 8.007101483261641 1.4099832412739487e-15
    vertex 10.516211566548009 8.213695692638899 1.4099832412739487e-15
  endloop
endfacet
facet normal 0.0 0.0 -1.0
  outer loop
    vertex 15.0 0.0 0.0
    vertex 10.516211566548009 8.213695692638899 1.4099832412739487e-15
    vertex 10.722805775925266 8.482934508181412 1.4099832412739487e-15
  endloop
endfacet
facet normal 0.0 0.0 -1.0
  outer loop
    vertex 15.0 0.0 0.0
    vertex 10.722805775925266 8.482934508181412 1.4099832412739487e-15
    vertex 10.852676325181285 8.796469749548134 1.4099832412739487e-15
  endloop
endfacet
facet normal 0.0 0.0 -1.0
  outer loop
    vertex 15.0 0.0 0.0
    vertex 10.852676325181285 8.796469749548134 1.4099832412739487e-15
    vertex 10.896972751005496 9.132934508181412 1.4099832412739487e-15
  endloop
endfacet
facet normal 0.0 0.0 -1.0
  outer loop
    vertex 15.0 0.0 0.0
    vertex 10.896972751005496 9.132934508181412 1.4099832412739487e-15
    vertex 15.0 15.0 0.0
  endloop
endfacet
facet normal -0.0 1.0 0.0
  outer loop
    vertex 0.0 15.0 0.0
    vertex 4.000000000000001 15.0 6.999999999999998
    vertex 15.0 15.0 0.0
  endloop
endfacet
facet normal -0.0 1.0 0.0
  outer loop
    vertex 4.000000000000001 15.0 6.999999999999998
    vertex 0.0 15.0 0.0
    vertex 0.0 15.0 17.999999999999996
  endloop
endfacet
facet normal -0.0 1.0 0.0
  outer loop
    vertex 4.000000000000001 15.0 6.999999999999998
    vertex 0.0 15.0 17.999999999999996
    vertex 4.000000000000001 15.0 17.999999999999996
  endloop
endfacet
facet normal -0.0 1.0 0.0
  outer loop
    vertex 15.0 15.0 6.999999999999998
    vertex 15.0 15.0 0.0
    vertex 4.000000000000001 15.0 6.999999999999998
  endloop
endfacet
facet normal 1.0 0.0 0.0
  outer loop
    vertex 15.0 0.0 0.0
    vertex 15.0 3.9999999999999996 6.999999999999998
    vertex 15.0 0.0 17.999999999999996
  endloop
endfacet
facet normal 1.0 0.0 0.0
  outer loop
    vertex 15.0 3.9999999999999996 6.999999999999998
    vertex 15.0 0.0 0.0
    vertex 15.0 15.0 0.0
  endloop
endfacet
facet normal 1.0 0.0 0.0
  outer loop
    vertex 15.0 3.9999999999999996 6.999999999999998
    vertex 15.0 15.0 0.0
    vertex 15.0 15.0 6.999999999999998
  endloop
endfacet
facet normal 1.0 0.0 0.0
  outer loop
    vertex 15.0 3.9999999999999996 17.999999999999996
    vertex 15.0 0.0 17.999999999999996
    vertex 15.0 3.9999999999999996 6.999999999999998
  endloop
endfacet
facet normal -0.0 -1.0 -0.0
  outer loop
    vertex 15.0 0.0 0.0
    vertex 10.784323437676811 4.229949723821846e-15 12.882607271605627
    vertex 0.0 0.0 0.0
  endloop
endfacet
facet normal -0.0 -1.0 -0.0
  outer loop
    vertex 10.784323437676811 4.229949723821846e-15 12.882607271605627
    vertex 15.0 0.0 0.0
    vertex 15.0 0.0 17.999999999999996
  endloop
endfacet
facet normal -0.0 -1.0 -0.0
  outer loop
    vertex 0.0 0.0 0.0
    vertex 10.784323437676811 4.229949723821846e-15 12.882607271605627
    vertex 10.515084622134298 4.229949723821846e-15 12.67601306222837
  endloop
endfacet
facet normal -0.0 -1.0 -0.0
  outer loop
    vertex 0.0 0.0 0.0
    vertex 10.515084622134298 4.229949723821846e-15 12.67601306222837
    vertex 10.201549380767576 4.229949723821846e-15 12.546142512972349
  endloop
endfacet
facet normal -0.0 -1.0 -0.0
  outer loop
    vertex 0.0 0.0 0.0
    vertex 10.201549380767576 4.229949723821846e-15 12.546142512972349
    vertex 9.865084622134297 4.229949723821846e-15 12.501846087148138
  endloop
endfacet
facet normal -0.0 -1.0 -0.0
  outer loop
    vertex 10.784323437676811 4.229949723821846e-15 12.882607271605627
    vertex 15.0 0.0 17.999999999999996
    vertex 10.990917647054069 4.229949723821846e-15 13.151846087148138
  endloop
endfacet
facet normal -0.0 -1.0 -0.0
  outer loop
    vertex 10.990917647054069 4.229949723821846e-15 13.151846087148138
    vertex 15.0 0.0 17.999999999999996
    vertex 11.120788196310086 4.229949723821846e-15 13.465381328514862
  endloop
endfacet
facet normal -0.0 -1.0 -0.0
  outer loop
    vertex 11.120788196310086 4.229949723821846e-15 13.465381328514862
    vertex 15.0 0.0 17.999999999999996
    vertex 11.165084622134298 4.229949723821846e-15 13.801846087148139
  endloop
endfacet
facet normal -0.0 -1.0 -0.0
  outer loop
    vertex 11.165084622134298 4.229949723821846e-15 13.801846087148139
    vertex 15.0 0.0 17.999999999999996
    vertex 11.120788196310087 4.229949723821846e-15 14.138310845781417
  endloop
endfacet
facet normal -0.0 -1.0 -0.0
  outer loop
    vertex 11.120788196310087 4.229949723821846e-15 14.138310845781417
    vertex 15.0 0.0 17.999999999999996
    vertex 10.990917647054069 4.229949723821846e-15 14.451846087148137
  endloop
endfacet
facet normal -0.0 -1.0 -0.0
  outer loop
    vertex 10.990917647054069 4.229949723821846e-15 14.451846087148137
    vertex 15.0 0.0 17.999999999999996
    vertex 10.784323437676811 4.229949723821846e-15 14.721084902690652
  endloop
endfacet
facet normal -0.0 -1.0 -0.0
  outer loop
    vertex 10.784323437676811 4.229949723821846e-15 14.721084902690652
    vertex 15.0 0.0 17.999999999999996
    vertex 10.515084622134298 4.229949723821846e-15 14.92767911206791
  endloop
endfacet
facet normal -0.0 -1.0 -0.0
  outer loop
    vertex 10.515084622134298 4.229949723821846e-15 14.92767911206791
    vertex 15.0 0.0 17.999999999999996
    vertex 10.201549380767576 4.229949723821846e-15 15.057549661323929
  endloop
endfacet
facet normal -0.0 -1.0 -0.0
  outer loop
    vertex 10.201549380767576 4.229949723821846e-15 15.057549661323929
    vertex 15.0 0.0 17.999999999999996
    vertex 9.865084622134297 4.229949723821846e-15 15.10184608714814
  endloop
endfacet
facet normal -0.0 -1.0 -0.0
  outer loop
    vertex 0.0 0.0 0.0
    vertex 9.215084622134297 4.229949723821846e-15 12.67601306222837
    vertex 0.0 0.0 17.999999999999996
  endloop
endfacet
facet normal -0.0 -1.0 -0.0
  outer loop
    vertex 9.215084622134297 4.229949723821846e-15 12.67601306222837
    vertex 0.0 0.0 0.0
    vertex 9.52861986350102 4.229949723821846e-15 12.546142512972349
  endloop
endfacet
facet normal -0.0 -1.0 -0.0
  outer loop
    vertex 9.52861986350102 4.229949723821846e-15 12.546142512972349
    vertex 0.0 0.0 0.0
    vertex 9.865084622134297 4.229949723821846e-15 12.501846087148138
  endloop
endfacet
facet normal -0.0 -1.0 -0.0
  outer loop
    vertex 0.0 0.0 17.999999999999996
    vertex 9.215084622134297 4.229949723821846e-15 12.67601306222837
    vertex 8.945845806591786 4.229949723821846e-15 12.882607271605627
  endloop
endfacet
facet normal -0.0 -1.0 -0.0
  outer loop
    vertex 0.0 0.0 17.999999999999996
    vertex 8.945845806591786 4.229949723821846e-15 12.882607271605627
    vertex 8.739251597214528 4.229949723821846e-15 13.15184608714814
  endloop
endfacet
facet normal -0.0 -1.0 -0.0
  outer loop
    vertex 0.0 0.0 17.999999999999996
    vertex 8.739251597214528 4.229949723821846e-15 13.15184608714814
    vertex 8.609381047958507 4.229949723821846e-15 13.465381328514862
  endloop
endfacet
facet normal -0.0 -1.0 -0.0
  outer loop
    vertex 0.0 0.0 17.999999999999996
    vertex 8.609381047958507 4.229949723821846e-15 13.465381328514862
    vertex 8.565084622134297 4.229949723821846e-15 13.801846087148139
  endloop
endfacet
facet normal -0.0 -1.0 -0.0
  outer loop
    vertex 0.0 0.0 17.999999999999996
    vertex 8.565084622134297 4.229949723821846e-15 13.801846087148139
    vertex 8.60938104795851 4.229949723821846e-15 14.138310845781417
  endloop
endfacet
facet normal -0.0 -1.0 -0.0
  outer loop
    vertex 0.0 0.0 17.999999999999996
    vertex 8.60938104795851 4.229949723821846e-15 14.138310845781417
    vertex 8.739251597214528 4.229949723821846e-15 14.451846087148141
  endloop
endfacet
facet normal -0.0 -1.0 -0.0
  outer loop
    vertex 0.0 0.0 17.999999999999996
    vertex 8.739251597214528 4.229949723821846e-15 14.451846087148141
    vertex 8.945845806591786 4.229949723821846e-15 14.721084902690652
  endloop
endfacet
facet normal -0.0 -1.0 -0.0
  outer loop
    vertex 0.0 0.0 17.999999999999996
    vertex 8.945845806591786 4.229949723821846e-15 14.721084902690652
    vertex 9.215084622134299 4.229949723821846e-15 14.92767911206791
  endloop
endfacet
facet normal -0.0 -1.0 -0.0
  outer loop
    vertex 0.0 0.0 17.999999999999996
    vertex 9.215084622134299 4.229949723821846e-15 14.92767911206791
    vertex 9.528619863501023 4.229949723821846e-15 15.057549661323929
  endloop
endfacet
facet normal -0.0 -1.0 -0.0
  outer loop
    vertex 0.0 0.0 17.999999999999996
    vertex 9.528619863501023 4.229949723821846e-15 15.057549661323929
    vertex 9.865084622134297 4.229949723821846e-15 15.10184608714814
  endloop
endfacet
facet normal -0.0 -1.0 -0.0
  outer loop
    vertex 0.0 0.0 17.999999999999996
    vertex 9.865084622134297 4.229949723821846e-15 15.10184608714814
    vertex 15.0 0.0 17.999999999999996
  endloop
endfacet
facet normal -1.0 0.0 0.0
  outer loop
    vertex 0.0 0.0 17.999999999999996
    vertex 4.229949723821846e-15 8.33868985299354 11.818595150524752
    vertex 0.0 0.0 0.0
  endloop
endfacet
facet normal -1.0 0.0 0.0
  outer loop
    vertex 4.229949723821846e-15 8.33868985299354 11.818595150524752
    vertex 0.0 0.0 17.999999999999996
    vertex 4.229949723821846e-15 8.545284062370797 12.087833966067262
  endloop
endfacet
facet normal -1.0 0.0 0.0
  outer loop
    vertex 4.229949723821846e-15 8.545284062370797 12.087833966067262
    vertex 0.0 0.0 17.999999999999996
    vertex 0.0 15.0 17.999999999999996
  endloop
endfacet
facet normal -1.0 0.0 0.0
  outer loop
    vertex 0.0 0.0 0.0
    vertex 4.229949723821846e-15 8.33868985299354 11.818595150524752
    vertex 4.229949723821846e-15 8.208819303737519 11.505059909158026
  endloop
endfacet
facet normal -1.0 0.0 0.0
  outer loop
    vertex 0.0 0.0 0.0
    vertex 4.229949723821846e-15 8.208819303737519 11.505059909158026
    vertex 4.229949723821846e-15 8.164522877913308 11.168595150524752
  endloop
endfacet
facet normal -1.0 0.0 0.0
  outer loop
    vertex 4.229949723821846e-15 8.545284062370797 12.087833966067262
    vertex 0.0 15.0 17.999999999999996
    vertex 4.229949723821846e-15 8.814522877913308 12.294428175444521
  endloop
endfacet
facet normal -1.0 0.0 0.0
  outer loop
    vertex 4.229949723821846e-15 8.814522877913308 12.294428175444521
    vertex 0.0 15.0 17.999999999999996
    vertex 4.229949723821846e-15 9.128058119280032 12.424298724700542
  endloop
endfacet
facet normal -1.0 0.0 0.0
  outer loop
    vertex 4.229949723821846e-15 9.128058119280032 12.424298724700542
    vertex 0.0 15.0 17.999999999999996
    vertex 4.229949723821846e-15 9.464522877913309 12.468595150524752
  endloop
endfacet
facet normal -1.0 0.0 0.0
  outer loop
    vertex 4.229949723821846e-15 9.464522877913309 12.468595150524752
    vertex 0.0 15.0 17.999999999999996
    vertex 4.229949723821846e-15 9.800987636546585 12.424298724700542
  endloop
endfacet
facet normal -1.0 0.0 0.0
  outer loop
    vertex 4.229949723821846e-15 9.800987636546585 12.424298724700542
    vertex 0.0 15.0 17.999999999999996
    vertex 4.229949723821846e-15 10.114522877913307 12.294428175444521
  endloop
endfacet
facet normal -1.0 0.0 0.0
  outer loop
    vertex 4.229949723821846e-15 10.114522877913307 12.294428175444521
    vertex 0.0 15.0 17.999999999999996
    vertex 4.229949723821846e-15 10.38376169345582 12.087833966067263
  endloop
endfacet
facet normal -1.0 0.0 0.0
  outer loop
    vertex 4.229949723821846e-15 10.38376169345582 12.087833966067263
    vertex 0.0 15.0 17.999999999999996
    vertex 4.229949723821846e-15 10.59035590283308 11.818595150524752
  endloop
endfacet
facet normal -1.0 0.0 0.0
  outer loop
    vertex 4.229949723821846e-15 10.59035590283308 11.818595150524752
    vertex 0.0 15.0 17.999999999999996
    vertex 4.229949723821846e-15 10.720226452089097 11.50505990915803
  endloop
endfacet
facet normal -1.0 0.0 0.0
  outer loop
    vertex 4.229949723821846e-15 10.720226452089097 11.50505990915803
    vertex 0.0 15.0 17.999999999999996
    vertex 4.229949723821846e-15 10.76452287791331 11.168595150524752
  endloop
endfacet
facet normal -1.0 0.0 0.0
  outer loop
    vertex 0.0 0.0 0.0
    vertex 4.229949723821846e-15 8.33868985299354 10.518595150524751
    vertex 0.0 15.0 0.0
  endloop
endfacet
facet normal -1.0 0.0 0.0
  outer loop
    vertex 4.229949723821846e-15 8.33868985299354 10.518595150524751
    vertex 0.0 0.0 0.0
    vertex 4.229949723821846e-15 8.20881930373752 10.832130391891473
  endloop
endfacet
facet normal -1.0 0.0 0.0
  outer loop
    vertex 4.229949723821846e-15 8.20881930373752 10.832130391891473
    vertex 0.0 0.0 0.0
    vertex 4.229949723821846e-15 8.164522877913308 11.168595150524752
  endloop
endfacet
facet normal -1.0 0.0 0.0
  outer loop
    vertex 0.0 15.0 0.0
    vertex 4.229949723821846e-15 8.33868985299354 10.518595150524751
    vertex 4.229949723821846e-15 8.545284062370797 10.249356334982238
  endloop
endfacet
facet normal -1.0 0.0 0.0
  outer loop
    vertex 0.0 15.0 0.0
    vertex 4.229949723821846e-15 8.545284062370797 10.249356334982238
    vertex 4.229949723821846e-15 8.814522877913308 10.04276212560498
  endloop
endfacet
facet normal -1.0 0.0 0.0
  outer loop
    vertex 0.0 15.0 0.0
    vertex 4.229949723821846e-15 8.814522877913308 10.04276212560498
    vertex 4.229949723821846e-15 9.128058119280032 9.912891576348962
  endloop
endfacet
facet normal -1.0 0.0 0.0
  outer loop
    vertex 0.0 15.0 0.0
    vertex 4.229949723821846e-15 9.128058119280032 9.912891576348962
    vertex 4.229949723821846e-15 9.464522877913309 9.868595150524751
  endloop
endfacet
facet normal -1.0 0.0 0.0
  outer loop
    vertex 0.0 15.0 0.0
    vertex 4.229949723821846e-15 9.464522877913309 9.868595150524751
    vertex 4.229949723821846e-15 9.800987636546587 9.912891576348962
  endloop
endfacet
facet normal -1.0 0.0 0.0
  outer loop
    vertex 0.0 15.0 0.0
    vertex 4.229949723821846e-15 9.800987636546587 9.912891576348962
    vertex 4.229949723821846e-15 10.11452287791331 10.04276212560498
  endloop
endfacet
facet normal -1.0 0.0 0.0
  outer loop
    vertex 0.0 15.0 0.0
    vertex 4.229949723821846e-15 10.11452287791331 10.04276212560498
    vertex 4.229949723821846e-15 10.38376169345582 10.249356334982238
  endloop
endfacet
facet normal -1.0 0.0 0.0
  outer loop
    vertex 0.0 15.0 0.0
    vertex 4.229949723821846e-15 10.38376169345582 10.249356334982238
    vertex 4.229949723821846e-15 10.59035590283308 10.518595150524751
  endloop
endfacet
facet normal -1.0 0.0 0.0
  outer loop
    vertex 0.0 15.0 0.0
    vertex 4.229949723821846e-15 10.59035590283308 10.518595150524751
    vertex 4.229949723821846e-15 10.720226452089099 10.832130391891473
  endloop
endfacet
facet normal -1.0 0.0 0.0
  outer loop
    vertex 0.0 15.0 0.0
    vertex 4.229949723821846e-15 10.720226452089099 10.832130391891473
    vertex 4.229949723821846e-15 10.76452287791331 11.168595150524752
  endloop
endfacet
facet normal -1.0 0.0 0.0
  outer loop
    vertex 0.0 15.0 0.0
    vertex 4.229949723821846e-15 10.76452287791331 11.168595150524752
    vertex 0.0 15.0 17.999999999999996
  endloop
endfacet
facet normal 0.0 0.0 1.0
  outer loop
    vertex 0.0 0.0 17.999999999999996
    vertex 4.000000000000001 3.9999999999999996 17.999999999999996
    vertex 0.0 15.0 17.999999999999996
  endloop
endfacet
facet normal 0.0 0.0 1.0
  outer loop
    vertex 4.000000000000001 3.9999999999999996 17.999999999999996
    vertex 0.0 0.0 17.999999999999996
    vertex 15.0 0.0 17.999999999999996
  endloop
endfacet
facet normal 0.0 0.0 1.0
  outer loop
    vertex 4.000000000000001 3.9999999999999996 17.999999999999996
    vertex 15.0 0.0 17.999999999999996
    vertex 15.0 3.9999999999999996 17.999999999999996
  endloop
endfacet
facet normal 0.0 0.0 1.0
  outer loop
    vertex 4.000000000000001 15.0 17.999999999999996
    vertex 0.0 15.0 17.999999999999996
    vertex 4.000000000000001 3.9999999999999996 17.999999999999996
  endloop
endfacet
facet normal 0.0 1.0 0.0
  outer loop
    vertex 4.000000000000001 3.9999999999999996 6.999999999999998
    vertex 8.945845806591786 4.0000000000000036 12.882607271605627
    vertex 15.0 3.9999999999999996 6.999999999999998
  endloop
endfacet
facet normal 0.0 1.0 0.0
  outer loop
    vertex 8.945845806591786 4.0000000000000036 12.882607271605627
    vertex 4.000000000000001 3.9999999999999996 6.999999999999998
    vertex 4.000000000000001 3.9999999999999996 17.999999999999996
  endloop
endfacet
facet normal 0.0 1.0 0.0
  outer loop
    vertex 15.0 3.9999999999999996 6.999999999999998
    vertex 8.945845806591786 4.0000000000000036 12.882607271605627
    vertex 9.215084622134297 4.0000000000000036 12.67601306222837
  endloop
endfacet
facet normal 0.0 1.0 0.0
  outer loop
    vertex 15.0 3.9999999999999996 6.999999999999998
    vertex 9.215084622134297 4.0000000000000036 12.67601306222837
    vertex 9.52861986350102 4.0000000000000036 12.546142512972349
  endloop
endfacet
facet normal 0.0 1.0 0.0
  outer loop
    vertex 15.0 3.9999999999999996 6.999999999999998
    vertex 9.52861986350102 4.0000000000000036 12.546142512972349
    vertex 9.865084622134297 4.0000000000000036 12.501846087148138
  endloop
endfacet
facet normal 0.0 1.0 0.0
  outer loop
    vertex 8.945845806591786 4.0000000000000036 12.882607271605627
    vertex 4.000000000000001 3.9999999999999996 17.999999999999996
    vertex 8.739251597214528 4.0000000000000036 13.15184608714814
  endloop
endfacet
facet normal 0.0 1.0 0.0
  outer loop
    vertex 8.739251597214528 4.0000000000000036 13.15184608714814
    vertex 4.000000000000001 3.9999999999999996 17.999999999999996
    vertex 8.609381047958507 4.0000000000000036 13.465381328514862
  endloop
endfacet
facet normal 0.0 1.0 0.0
  outer loop
    vertex 8.609381047958507 4.0000000000000036 13.465381328514862
    vertex 4.000000000000001 3.9999999999999996 17.999999999999996
    vertex 8.565084622134297 4.0000000000000036 13.801846087148139
  endloop
endfacet
facet normal 0.0 1.0 0.0
  outer loop
    vertex 8.565084622134297 4.0000000000000036 13.801846087148139
    vertex 4.000000000000001 3.9999999999999996 17.999999999999996
    vertex 8.60938104795851 4.0000000000000036 14.138310845781417
  endloop
endfacet
facet normal 0.0 1.0 0.0
  outer loop
    vertex 8.60938104795851 4.0000000000000036 14.138310845781417
    vertex 4.000000000000001 3.9999999999999996 17.999999999999996
    vertex 8.739251597214528 4.0000000000000036 14.451846087148141
  endloop
endfacet
facet normal 0.0 1.0 0.0
  outer loop
    vertex 8.739251597214528 4.0000000000000036 14.451846087148141
    vertex 4.000000000000001 3.9999999999999996 17.999999999999996
    vertex 8.945845806591786 4.0000000000000036 14.721084902690652
  endloop
endfacet
facet normal 0.0 1.0 0.0
  outer loop
    vertex 8.945845806591786 4.0000000000000036 14.721084902690652
    vertex 4.000000000000001 3.9999999999999996 17.999999999999996
    vertex 9.215084622134299 4.0000000000000036 14.92767911206791
  endloop
endfacet
facet normal 0.0 1.0 0.0
  outer loop
    vertex 9.215084622134299 4.0000000000000036 14.92767911206791
    vertex 4.000000000000001 3.9999999999999996 17.999999999999996
    vertex 9.528619863501023 4.0000000000000036 15.057549661323929
  endloop
endfacet
facet normal 0.0 1.0 0.0
  outer loop
    vertex 9.528619863501023 4.0000000000000036 15.057549661323929
    vertex 4.000000000000001 3.9999999999999996 17.999999999999996
    vertex 9.865084622134297 4.0000000000000036 15.10184608714814
  endloop
endfacet
facet normal 0.0 1.0 0.0
  outer loop
    vertex 15.0 3.9999999999999996 6.999999999999998
    vertex 10.784323437676811 4.0000000000000036 12.882607271605627
    vertex 15.0 3.9999999999999996 17.999999999999996
  endloop
endfacet
facet normal 0.0 1.0 0.0
  outer loop
    vertex 10.784323437676811 4.0000000000000036 12.882607271605627
    vertex 15.0 3.9999999999999996 6.999999999999998
    vertex 10.515084622134298 4.0000000000000036 12.67601306222837
  endloop
endfacet
facet normal 0.0 1.0 0.0
  outer loop
    vertex 10.515084622134298 4.0000000000000036 12.67601306222837
    vertex 15.0 3.9999999999999996 6.999999999999998
    vertex 10.201549380767576 4.0000000000000036 12.546142512972349
  endloop
endfacet
facet normal 0.0 1.0 0.0
  outer loop
    vertex 10.201549380767576 4.0000000000000036 12.546142512972349
    vertex 15.0 3.9999999999999996 6.999999999999998
    vertex 9.865084622134297 4.0000000000000036 12.501846087148138
  endloop
endfacet
facet normal 0.0 1.0 0.0
  outer loop
    vertex 15.0 3.9999999999999996 17.999999999999996
    vertex 10.784323437676811 4.0000000000000036 12.882607271605627
    vertex 10.990917647054069 4.0000000000000036 13.151846087148138
  endloop
endfacet
facet normal 0.0 1.0 0.0
  outer loop
    vertex 15.0 3.9999999999999996 17.999999999999996
    vertex 10.990917647054069 4.0000000000000036 13.151846087148138
    vertex 11.120788196310086 4.0000000000000036 13.465381328514862
  endloop
endfacet
facet normal 0.0 1.0 0.0
  outer loop
    vertex 15.0 3.9999999999999996 17.999999999999996
    vertex 11.120788196310086 4.0000000000000036 13.465381328514862
    vertex 11.165084622134298 4.0000000000000036 13.801846087148139
  endloop
endfacet
facet normal 0.0 1.0 0.0
  outer loop
    vertex 15.0 3.9999999999999996 17.999999999999996
    vertex 11.165084622134298 4.0000000000000036 13.801846087148139
    vertex 11.120788196310087 4.0000000000000036 14.138310845781417
  endloop
endfacet
facet normal 0.0 1.0 0.0
  outer loop
    vertex 15.0 3.9999999999999996 17.999999999999996
    vertex 11.120788196310087 4.0000000000000036 14.138310845781417
    vertex 10.990917647054069 4.0000000000000036 14.451846087148137
  endloop
endfacet
facet normal 0.0 1.0 0.0
  outer loop
    vertex 15.0 3.9999999999999996 17.999999999999996
    vertex 10.990917647054069 4.0000000000000036 14.451846087148137
    vertex 10.784323437676811 4.0000000000000036 14.721084902690652
  endloop
endfacet
facet normal 0.0 1.0 0.0
  outer loop
    vertex 15.0 3.9999999999999996 17.999999999999996
    vertex 10.784323437676811 4.0000000000000036 14.721084902690652
    vertex 10.515084622134298 4.0000000000000036 14.92767911206791
  endloop
endfacet
facet normal 0.0 1.0 0.0
  outer loop
    vertex 15.0 3.9999999999999996 17.999999999999996
    vertex 10.515084622134298 4.0000000000000036 14.92767911206791
    vertex 10.201549380767576 4.0000000000000036 15.057549661323929
  endloop
endfacet
facet normal 0.0 1.0 0.0
  outer loop
    vertex 15.0 3.9999999999999996 17.999999999999996
    vertex 10.201549380767576 4.0000000000000036 15.057549661323929
    vertex 9.865084622134297 4.0000000000000036 15.10184608714814
  endloop
endfacet
facet normal 0.0 1.0 0.0
  outer loop
    vertex 15.0 3.9999999999999996 17.999999999999996
    vertex 9.865084622134297 4.0000000000000036 15.10184608714814
    vertex 4.000000000000001 3.9999999999999996 17.999999999999996
  endloop
endfacet
facet normal 1.0 -0.0 0.0
  outer loop
    vertex 4.000000000000001 3.9999999999999996 6.999999999999998
    vertex 4.0000000000000036 8.33868985299354 10.518595150524751
    vertex 4.000000000000001 3.9999999999999996 17.999999999999996
  endloop
endfacet
facet normal 1.0 -0.0 0.0
  outer loop
    vertex 4.0000000000000036 8.33868985299354 10.518595150524751
    vertex 4.000000000000001 3.9999999999999996 6.999999999999998
    vertex 4.0000000000000036 8.545284062370797 10.249356334982238
  endloop
endfacet
facet normal 1.0 -0.0 0.0
  outer loop
    vertex 4.0000000000000036 8.545284062370797 10.249356334982238
    vertex 4.000000000000001 3.9999999999999996 6.999999999999998
    vertex 4.0000000000000036 8.814522877913308 10.04276212560498
  endloop
endfacet
facet normal 1.0 -0.0 0.0
  outer loop
    vertex 4.0000000000000036 8.814522877913308 10.04276212560498
    vertex 4.000000000000001 3.9999999999999996 6.999999999999998
    vertex 4.000000000000001 15.0 6.999999999999998
  endloop
endfacet
facet normal 1.0 -0.0 0.0
  outer loop
    vertex 4.000000000000001 3.9999999999999996 17.999999999999996
    vertex 4.0000000000000036 8.33868985299354 10.518595150524751
    vertex 4.0000000000000036 8.20881930373752 10.832130391891473
  endloop
endfacet
facet normal 1.0 -0.0 0.0
  outer loop
    vertex 4.000000000000001 3.9999999999999996 17.999999999999996
    vertex 4.0000000000000036 8.20881930373752 10.832130391891473
    vertex 4.0000000000000036 8.164522877913308 11.168595150524752
  endloop
endfacet
facet normal 1.0 -0.0 0.0
  outer loop
    vertex 4.0000000000000036 8.814522877913308 10.04276212560498
    vertex 4.000000000000001 15.0 6.999999999999998
    vertex 4.0000000000000036 9.128058119280032 9.912891576348962
  endloop
endfacet
facet normal 1.0 -0.0 0.0
  outer loop
    vertex 4.0000000000000036 9.128058119280032 9.912891576348962
    vertex 4.000000000000001 15.0 6.999999999999998
    vertex 4.0000000000000036 9.464522877913309 9.868595150524751
  endloop
endfacet
facet normal 1.0 -0.0 0.0
  outer loop
    vertex 4.0000000000000036 9.464522877913309 9.868595150524751
    vertex 4.000000000000001 15.0 6.999999999999998
    vertex 4.0000000000000036 9.800987636546587 9.912891576348962
  endloop
endfacet
facet normal 1.0 -0.0 0.0
  outer loop
    vertex 4.0000000000000036 9.800987636546587 9.912891576348962
    vertex 4.000000000000001 15.0 6.999999999999998
    vertex 4.0000000000000036 10.11452287791331 10.04276212560498
  endloop
endfacet
facet normal 1.0 -0.0 0.0
  outer loop
    vertex 4.0000000000000036 10.11452287791331 10.04276212560498
    vertex 4.000000000000001 15.0 6.999999999999998
    vertex 4.0000000000000036 10.38376169345582 10.249356334982238
  endloop
endfacet
facet normal 1.0 -0.0 0.0
  outer loop
    vertex 4.0000000000000036 10.38376169345582 10.249356334982238
    vertex 4.000000000000001 15.0 6.999999999999998
    vertex 4.0000000000000036 10.59035590283308 10.518595150524751
  endloop
endfacet
facet normal 1.0 -0.0 0.0
  outer loop
    vertex 4.0000000000000036 10.59035590283308 10.518595150524751
    vertex 4.000000000000001 15.0 6.999999999999998
    vertex 4.0000000000000036 10.720226452089099 10.832130391891473
  endloop
endfacet
facet normal 1.0 -0.0 0.0
  outer loop
    vertex 4.0000000000000036 10.720226452089099 10.832130391891473
    vertex 4.000000000000001 15.0 6.999999999999998
    vertex 4.0000000000000036 10.76452287791331 11.168595150524752
  endloop
endfacet
facet normal 1.0 -0.0 0.0
  outer loop
    vertex 4.000000000000001 3.9999999999999996 17.999999999999996
    vertex 4.0000000000000036 8.545284062370797 12.087833966067262
    vertex 4.000000000000001 15.0 17.999999999999996
  endloop
endfacet
facet normal 1.0 -0.0 0.0
  outer loop
    vertex 4.0000000000000036 8.545284062370797 12.087833966067262
    vertex 4.000000000000001 3.9999999999999996 17.999999999999996
    vertex 4.0000000000000036 8.33868985299354 11.818595150524752
  endloop
endfacet
facet normal 1.0 -0.0 0.0
  outer loop
    vertex 4.0000000000000036 8.33868985299354 11.818595150524752
    vertex 4.000000000000001 3.9999999999999996 17.999999999999996
    vertex 4.0000000000000036 8.208819303737519 11.505059909158026
  endloop
endfacet
facet normal 1.0 -0.0 0.0
  outer loop
    vertex 4.0000000000000036 8.208819303737519 11.505059909158026
    vertex 4.000000000000001 3.9999999999999996 17.999999999999996
    vertex 4.0000000000000036 8.164522877913308 11.168595150524752
  endloop
endfacet
facet normal 1.0 -0.0 0.0
  outer loop
    vertex 4.000000000000001 15.0 17.999999999999996
    vertex 4.0000000000000036 8.545284062370797 12.087833966067262
    vertex 4.0000000000000036 8.814522877913308 12.294428175444521
  endloop
endfacet
facet normal 1.0 -0.0 0.0
  outer loop
    vertex 4.000000000000001 15.0 17.999999999999996
    vertex 4.0000000000000036 8.814522877913308 12.294428175444521
    vertex 4.0000000000000036 9.128058119280032 12.424298724700542
  endloop
endfacet
facet normal 1.0 -0.0 0.0
  outer loop
    vertex 4.000000000000001 15.0 17.999999999999996
    vertex 4.0000000000000036 9.128058119280032 12.424298724700542
    vertex 4.0000000000000036 9.464522877913309 12.468595150524752
  endloop
endfacet
facet normal 1.0 -0.0 0.0
  outer loop
    vertex 4.000000000000001 15.0 17.999999999999996
    vertex 4.0000000000000036 9.464522877913309 12.468595150524752
    vertex 4.0000000000000036 9.800987636546585 12.424298724700542
  endloop
endfacet
facet normal 1.0 -0.0 0.0
  outer loop
    vertex 4.000000000000001 15.0 17.999999999999996
    vertex 4.0000000000000036 9.800987636546585 12.424298724700542
    vertex 4.0000000000000036 10.114522877913307 12.294428175444521
  endloop
endfacet
facet normal 1.0 -0.0 0.0
  outer loop
    vertex 4.000000000000001 15.0 17.999999999999996
    vertex 4.0000000000000036 10.114522877913307 12.294428175444521
    vertex 4.0000000000000036 10.38376169345582 12.087833966067263
  endloop
endfacet
facet normal 1.0 -0.0 0.0
  outer loop
    vertex 4.000000000000001 15.0 17.999999999999996
    vertex 4.0000000000000036 10.38376169345582 12.087833966067263
    vertex 4.0000000000000036 10.59035590283308 11.818595150524752
  endloop
endfacet
facet normal 1.0 -0.0 0.0
  outer loop
    vertex 4.000000000000001 15.0 17.999999999999996
    vertex 4.0000000000000036 10.59035590283308 11.818595150524752
    vertex 4.0000000000000036 10.720226452089097 11.50505990915803
  endloop
endfacet
facet normal 1.0 -0.0 0.0
  outer loop
    vertex 4.000000000000001 15.0 17.999999999999996
    vertex 4.0000000000000036 10.720226452089097 11.50505990915803
    vertex 4.0000000000000036 10.76452287791331 11.168595150524752
  endloop
endfacet
facet normal 1.0 -0.0 0.0
  outer loop
    vertex 4.000000000000001 15.0 17.999999999999996
    vertex 4.0000000000000036 10.76452287791331 11.168595150524752
    vertex 4.000000000000001 15.0 6.999999999999998
  endloop
endfacet
facet normal 0.0 0.0 1.0
  outer loop
    vertex 4.000000000000001 3.9999999999999996 6.999999999999998
    vertex 8.471139726085726 8.482934508181412 7.0
    vertex 4.000000000000001 15.0 6.999999999999998
  endloop
endfacet
facet normal 0.0 0.0 1.0
  outer loop
    vertex 8.471139726085726 8.482934508181412 7.0
    vertex 4.000000000000001 3.9999999999999996 6.999999999999998
    vertex 8.677733935462985 8.213695692638899 7.0
  endloop
endfacet
facet normal 0.0 0.0 1.0
  outer loop
    vertex 8.677733935462985 8.213695692638899 7.0
    vertex 4.000000000000001 3.9999999999999996 6.999999999999998
    vertex 8.946972751005495 8.007101483261641 7.0
  endloop
endfacet
facet normal 0.0 0.0 1.0
  outer loop
    vertex 8.946972751005495 8.007101483261641 7.0
    vertex 4.000000000000001 3.9999999999999996 6.999999999999998
    vertex 15.0 3.9999999999999996 6.999999999999998
  endloop
endfacet
facet normal 0.0 0.0 1.0
  outer loop
    vertex 4.000000000000001 15.0 6.999999999999998
    vertex 8.471139726085726 8.482934508181412 7.0
    vertex 8.341269176829705 8.796469749548134 7.0
  endloop
endfacet
facet normal 0.0 0.0 1.0
  outer loop
    vertex 4.000000000000001 15.0 6.999999999999998
    vertex 8.341269176829705 8.796469749548134 7.0
    vertex 8.296972751005494 9.132934508181412 7.0
  endloop
endfacet
facet normal 0.0 0.0 1.0
  outer loop
    vertex 8.946972751005495 8.007101483261641 7.0
    vertex 15.0 3.9999999999999996 6.999999999999998
    vertex 9.26050799237222 7.877230934005621 7.0
  endloop
endfacet
facet normal 0.0 0.0 1.0
  outer loop
    vertex 9.26050799237222 7.877230934005621 7.0
    vertex 15.0 3.9999999999999996 6.999999999999998
    vertex 9.596972751005495 7.832934508181411 7.0
  endloop
endfacet
facet normal 0.0 0.0 1.0
  outer loop
    vertex 9.596972751005495 7.832934508181411 7.0
    vertex 15.0 3.9999999999999996 6.999999999999998
    vertex 9.933437509638773 7.877230934005623 7.0
  endloop
endfacet
facet normal 0.0 0.0 1.0
  outer loop
    vertex 9.933437509638773 7.877230934005623 7.0
    vertex 15.0 3.9999999999999996 6.999999999999998
    vertex 10.246972751005496 8.007101483261641 7.0
  endloop
endfacet
facet normal 0.0 0.0 1.0
  outer loop
    vertex 10.246972751005496 8.007101483261641 7.0
    vertex 15.0 3.9999999999999996 6.999999999999998
    vertex 10.516211566548009 8.213695692638899 7.0
  endloop
endfacet
facet normal 0.0 0.0 1.0
  outer loop
    vertex 10.516211566548009 8.213695692638899 7.0
    vertex 15.0 3.9999999999999996 6.999999999999998
    vertex 10.722805775925266 8.482934508181412 7.0
  endloop
endfacet
facet normal 0.0 0.0 1.0
  outer loop
    vertex 10.722805775925266 8.482934508181412 7.0
    vertex 15.0 3.9999999999999996 6.999999999999998
    vertex 10.852676325181285 8.796469749548134 7.0
  endloop
endfacet
facet normal 0.0 0.0 1.0
  outer loop
    vertex 10.852676325181285 8.796469749548134 7.0
    vertex 15.0 3.9999999999999996 6.999999999999998
    vertex 10.896972751005496 9.132934508181412 7.0
  endloop
endfacet
facet normal 0.0 0.0 1.0
  outer loop
    vertex 4.000000000000001 15.0 6.999999999999998
    vertex 8.677733935462983 10.052173323723924 7.0
    vertex 15.0 15.0 6.999999999999998
  endloop
endfacet
facet normal 0.0 0.0 1.0
  outer loop
    vertex 8.677733935462983 10.052173323723924 7.0
    vertex 4.000000000000001 15.0 6.999999999999998
    vertex 8.471139726085726 9.78293450818141 7.0
  endloop
endfacet
facet normal 0.0 0.0 1.0
  outer loop
    vertex 8.471139726085726 9.78293450818141 7.0
    vertex 4.000000000000001 15.0 6.999999999999998
    vertex 8.341269176829705 9.469399266814687 7.0
  endloop
endfacet
facet normal 0.0 0.0 1.0
  outer loop
    vertex 8.341269176829705 9.469399266814687 7.0
    vertex 4.000000000000001 15.0 6.999999999999998
    vertex 8.296972751005494 9.132934508181412 7.0
  endloop
endfacet
facet normal 0.0 0.0 1.0
  outer loop
    vertex 15.0 15.0 6.999999999999998
    vertex 8.677733935462983 10.052173323723924 7.0
    vertex 8.946972751005495 10.258767533101182 7.0
  endloop
endfacet
facet normal 0.0 0.0 1.0
  outer loop
    vertex 15.0 15.0 6.999999999999998
    vertex 8.946972751005495 10.258767533101182 7.0
    vertex 9.260507992372217 10.3886380823572 7.0
  endloop
endfacet
facet normal 0.0 0.0 1.0
  outer loop
    vertex 15.0 15.0 6.999999999999998
    vertex 9.260507992372217 10.3886380823572 7.0
    vertex 9.596972751005495 10.432934508181411 7.0
  endloop
endfacet
facet normal 0.0 0.0 1.0
  outer loop
    vertex 15.0 15.0 6.999999999999998
    vertex 9.596972751005495 10.432934508181411 7.0
    vertex 9.933437509638773 10.3886380823572 7.0
  endloop
endfacet
facet normal 0.0 0.0 1.0
  outer loop
    vertex 15.0 15.0 6.999999999999998
    vertex 9.933437509638773 10.3886380823572 7.0
    vertex 10.246972751005496 10.258767533101182 7.0
  endloop
endfacet
facet normal 0.0 0.0 1.0
  outer loop
    vertex 15.0 15.0 6.999999999999998
    vertex 10.246972751005496 10.258767533101182 7.0
    vertex 10.516211566548009 10.052173323723924 7.0
  endloop
endfacet
facet normal 0.0 0.0 1.0
  outer loop
    vertex 15.0 15.0 6.999999999999998
    vertex 10.516211566548009 10.052173323723924 7.0
    vertex 10.722805775925266 9.78293450818141 7.0
  endloop
endfacet
facet normal 0.0 0.0 1.0
  outer loop
    vertex 15.0 15.0 6.999999999999998
    vertex 10.722805775925266 9.78293450818141 7.0
    vertex 10.852676325181285 9.469399266814689 7.0
  endloop
endfacet
facet normal 0.0 0.0 1.0
  outer loop
    vertex 15.0 15.0 6.999999999999998
    vertex 10.852676325181285 9.469399266814689 7.0
    vertex 10.896972751005496 9.132934508181412 7.0
  endloop
endfacet
facet normal 0.0 0.0 1.0
  outer loop
    vertex 15.0 15.0 6.999999999999998
    vertex 10.896972751005496 9.132934508181412 7.0
    vertex 15.0 3.9999999999999996 6.999999999999998
  endloop
endfacet
facet normal -0.7933533402912363 0.6087614290087192 0.0
  outer loop
    vertex 10.722805775925266 8.482934508181412 7.0
    vertex 10.516211566548009 8.213695692638899 1.4099832412739487e-15
    vertex 10.516211566548009 8.213695692638899 7.0
  endloop
endfacet
facet normal -0.7933533402912363 0.6087614290087192 0.0
  outer loop
    vertex 10.516211566548009 8.213695692638899 1.4099832412739487e-15
    vertex 10.722805775925266 8.482934508181412 7.0
    vertex 10.722805775925266 8.482934508181412 1.4099832412739487e-15
  endloop
endfacet
facet normal -0.6087614290087192 0.7933533402912363 0.0
  outer loop
    vertex 10.246972751005496 8.007101483261641 7.0
    vertex 10.516211566548009 8.213695692638899 1.4099832412739487e-15
    vertex 10.246972751005496 8.007101483261641 1.4099832412739487e-15
  endloop
endfacet
facet normal -0.6087614290087192 0.7933533402912363 0.0
  outer loop
    vertex 10.516211566548009 8.213695692638899 1.4099832412739487e-15
    vertex 10.246972751005496 8.007101483261641 7.0
    vertex 10.516211566548009 8.213695692638899 7.0
  endloop
endfacet
facet normal -0.38268343236508845 0.9238795325112873 0.0
  outer loop
    vertex 9.933437509638773 7.877230934005623 7.0
    vertex 10.246972751005496 8.007101483261641 1.4099832412739487e-15
    vertex 9.933437509638773 7.877230934005623 1.4099832412739487e-15
  endloop
endfacet
facet normal -0.38268343236508845 0.9238795325112873 0.0
  outer loop
    vertex 10.246972751005496 8.007101483261641 1.4099832412739487e-15
    vertex 9.933437509638773 7.877230934005623 7.0
    vertex 10.246972751005496 8.007101483261641 7.0
  endloop
endfacet
facet normal -0.13052619222005407 0.9914448613738102 0.0
  outer loop
    vertex 9.596972751005495 7.832934508181411 7.0
    vertex 9.933437509638773 7.877230934005623 1.4099832412739487e-15
    vertex 9.596972751005495 7.832934508181411 1.4099832412739487e-15
  endloop
endfacet
facet normal -0.13052619222005407 0.9914448613738102 0.0
  outer loop
    vertex 9.933437509638773 7.877230934005623 1.4099832412739487e-15
    vertex 9.596972751005495 7.832934508181411 7.0
    vertex 9.933437509638773 7.877230934005623 7.0
  endloop
endfacet
facet normal 0.13052619222005055 0.9914448613738107 0.0
  outer loop
    vertex 9.26050799237222 7.877230934005621 7.0
    vertex 9.596972751005495 7.832934508181411 1.4099832412739487e-15
    vertex 9.26050799237222 7.877230934005621 1.4099832412739487e-15
  endloop
endfacet
facet normal 0.13052619222005055 0.9914448613738107 0.0
  outer loop
    vertex 9.596972751005495 7.832934508181411 1.4099832412739487e-15
    vertex 9.26050799237222 7.877230934005621 7.0
    vertex 9.596972751005495 7.832934508181411 7.0
  endloop
endfacet
facet normal 0.38268343236509056 0.9238795325112865 0.0
  outer loop
    vertex 8.946972751005495 8.007101483261641 7.0
    vertex 9.26050799237222 7.877230934005621 1.4099832412739487e-15
    vertex 8.946972751005495 8.007101483261641 1.4099832412739487e-15
  endloop
endfacet
facet normal 0.38268343236509056 0.9238795325112865 0.0
  outer loop
    vertex 9.26050799237222 7.877230934005621 1.4099832412739487e-15
    vertex 8.946972751005495 8.007101483261641 7.0
    vertex 9.26050799237222 7.877230934005621 7.0
  endloop
endfacet
facet normal 0.6087614290087212 0.7933533402912347 0.0
  outer loop
    vertex 8.677733935462985 8.213695692638899 7.0
    vertex 8.946972751005495 8.007101483261641 1.4099832412739487e-15
    vertex 8.677733935462985 8.213695692638899 1.4099832412739487e-15
  endloop
endfacet
facet normal 0.6087614290087212 0.7933533402912347 0.0
  outer loop
    vertex 8.946972751005495 8.007101483261641 1.4099832412739487e-15
    vertex 8.677733935462985 8.213695692638899 7.0
    vertex 8.946972751005495 8.007101483261641 7.0
  endloop
endfacet
facet normal 0.7933533402912344 0.6087614290087219 0.0
  outer loop
    vertex 8.471139726085726 8.482934508181412 1.4099832412739487e-15
    vertex 8.677733935462985 8.213695692638899 7.0
    vertex 8.677733935462985 8.213695692638899 1.4099832412739487e-15
  endloop
endfacet
facet normal 0.7933533402912344 0.6087614290087219 0.0
  outer loop
    vertex 8.677733935462985 8.213695692638899 7.0
    vertex 8.471139726085726 8.482934508181412 1.4099832412739487e-15
    vertex 8.471139726085726 8.482934508181412 7.0
  endloop
endfacet
facet normal 0.923879532511286 0.38268343236509206 0.0
  outer loop
    vertex 8.341269176829705 8.796469749548134 1.4099832412739487e-15
    vertex 8.471139726085726 8.482934508181412 7.0
    vertex 8.471139726085726 8.482934508181412 1.4099832412739487e-15
  endloop
endfacet
facet normal 0.923879532511286 0.38268343236509206 0.0
  outer loop
    vertex 8.471139726085726 8.482934508181412 7.0
    vertex 8.341269176829705 8.796469749548134 1.4099832412739487e-15
    vertex 8.341269176829705 8.796469749548134 7.0
  endloop
endfacet
facet normal 0.9914448613738107 0.13052619222005 0.0
  outer loop
    vertex 8.296972751005494 9.132934508181412 1.4099832412739487e-15
    vertex 8.341269176829705 8.796469749548134 7.0
    vertex 8.341269176829705 8.796469749548134 1.4099832412739487e-15
  endloop
endfacet
facet normal 0.9914448613738107 0.13052619222005 0.0
  outer loop
    vertex 8.341269176829705 8.796469749548134 7.0
    vertex 8.296972751005494 9.132934508181412 1.4099832412739487e-15
    vertex 8.296972751005494 9.132934508181412 7.0
  endloop
endfacet
facet normal 0.9914448613738107 -0.13052619222005055 0.0
  outer loop
    vertex 8.341269176829705 9.469399266814687 1.4099832412739487e-15
    vertex 8.296972751005494 9.132934508181412 7.0
    vertex 8.296972751005494 9.132934508181412 1.4099832412739487e-15
  endloop
endfacet
facet normal 0.9914448613738107 -0.13052619222005055 0.0
  outer loop
    vertex 8.296972751005494 9.132934508181412 7.0
    vertex 8.341269176829705 9.469399266814687 1.4099832412739487e-15
    vertex 8.341269176829705 9.469399266814687 7.0
  endloop
endfacet
facet normal 0.923879532511286 -0.38268343236509206 0.0
  outer loop
    vertex 8.471139726085726 9.78293450818141 1.4099832412739487e-15
    vertex 8.341269176829705 9.469399266814687 7.0
    vertex 8.341269176829705 9.469399266814687 1.4099832412739487e-15
  endloop
endfacet
facet normal 0.923879532511286 -0.38268343236509206 0.0
  outer loop
    vertex 8.341269176829705 9.469399266814687 7.0
    vertex 8.471139726085726 9.78293450818141 1.4099832412739487e-15
    vertex 8.471139726085726 9.78293450818141 7.0
  endloop
endfacet
facet normal 0.7933533402912379 -0.6087614290087172 0.0
  outer loop
    vertex 8.677733935462983 10.052173323723924 1.4099832412739487e-15
    vertex 8.471139726085726 9.78293450818141 7.0
    vertex 8.471139726085726 9.78293450818141 1.4099832412739487e-15
  endloop
endfacet
facet normal 0.7933533402912379 -0.6087614290087172 0.0
  outer loop
    vertex 8.471139726085726 9.78293450818141 7.0
    vertex 8.677733935462983 10.052173323723924 1.4099832412739487e-15
    vertex 8.677733935462983 10.052173323723924 7.0
  endloop
endfacet
facet normal 0.6087614290087192 -0.7933533402912363 0.0
  outer loop
    vertex 8.946972751005495 10.258767533101182 7.0
    vertex 8.677733935462983 10.052173323723924 1.4099832412739487e-15
    vertex 8.946972751005495 10.258767533101182 1.4099832412739487e-15
  endloop
endfacet
facet normal 0.6087614290087192 -0.7933533402912363 0.0
  outer loop
    vertex 8.677733935462983 10.052173323723924 1.4099832412739487e-15
    vertex 8.946972751005495 10.258767533101182 7.0
    vertex 8.677733935462983 10.052173323723924 7.0
  endloop
endfacet
facet normal 0.3826834323650899 -0.9238795325112866 0.0
  outer loop
    vertex 9.260507992372217 10.3886380823572 7.0
    vertex 8.946972751005495 10.258767533101182 1.4099832412739487e-15
    vertex 9.260507992372217 10.3886380823572 1.4099832412739487e-15
  endloop
endfacet
facet normal 0.3826834323650899 -0.9238795325112866 0.0
  outer loop
    vertex 8.946972751005495 10.258767533101182 1.4099832412739487e-15
    vertex 9.260507992372217 10.3886380823572 7.0
    vertex 8.946972751005495 10.258767533101182 7.0
  endloop
endfacet
facet normal 0.13052619222005352 -0.9914448613738102 0.0
  outer loop
    vertex 9.596972751005495 10.432934508181411 7.0
    vertex 9.260507992372217 10.3886380823572 1.4099832412739487e-15
    vertex 9.596972751005495 10.432934508181411 1.4099832412739487e-15
  endloop
endfacet
facet normal 0.13052619222005352 -0.9914448613738102 0.0
  outer loop
    vertex 9.260507992372217 10.3886380823572 1.4099832412739487e-15
    vertex 9.596972751005495 10.432934508181411 7.0
    vertex 9.260507992372217 10.3886380823572 7.0
  endloop
endfacet
facet normal -0.13052619222005 -0.9914448613738107 -0.0
  outer loop
    vertex 9.933437509638773 10.3886380823572 7.0
    vertex 9.596972751005495 10.432934508181411 1.4099832412739487e-15
    vertex 9.933437509638773 10.3886380823572 1.4099832412739487e-15
  endloop
endfacet
facet normal -0.13052619222005 -0.9914448613738107 -0.0
  outer loop
    vertex 9.596972751005495 10.432934508181411 1.4099832412739487e-15
    vertex 9.933437509638773 10.3886380823572 7.0
    vertex 9.596972751005495 10.432934508181411 7.0
  endloop
endfacet
facet normal -0.38268343236509206 -0.923879532511286 -0.0
  outer loop
    vertex 10.246972751005496 10.258767533101182 7.0
    vertex 9.933437509638773 10.3886380823572 1.4099832412739487e-15
    vertex 10.246972751005496 10.258767533101182 1.4099832412739487e-15
  endloop
endfacet
facet normal -0.38268343236509206 -0.923879532511286 -0.0
  outer loop
    vertex 9.933437509638773 10.3886380823572 1.4099832412739487e-15
    vertex 10.246972751005496 10.258767533101182 7.0
    vertex 9.933437509638773 10.3886380823572 7.0
  endloop
endfacet
facet normal -0.6087614290087192 -0.7933533402912363 -0.0
  outer loop
    vertex 10.516211566548009 10.052173323723924 7.0
    vertex 10.246972751005496 10.258767533101182 1.4099832412739487e-15
    vertex 10.516211566548009 10.052173323723924 1.4099832412739487e-15
  endloop
endfacet
facet normal -0.6087614290087192 -0.7933533402912363 -0.0
  outer loop
    vertex 10.246972751005496 10.258767533101182 1.4099832412739487e-15
    vertex 10.516211566548009 10.052173323723924 7.0
    vertex 10.246972751005496 10.258767533101182 7.0
  endloop
endfacet
facet normal -0.7933533402912363 -0.6087614290087192 -0.0
  outer loop
    vertex 10.516211566548009 10.052173323723924 7.0
    vertex 10.722805775925266 9.78293450818141 1.4099832412739487e-15
    vertex 10.722805775925266 9.78293450818141 7.0
  endloop
endfacet
facet normal -0.7933533402912363 -0.6087614290087192 -0.0
  outer loop
    vertex 10.722805775925266 9.78293450818141 1.4099832412739487e-15
    vertex 10.516211566548009 10.052173323723924 7.0
    vertex 10.516211566548009 10.052173323723924 1.4099832412739487e-15
  endloop
endfacet
facet normal -0.923879532511286 -0.38268343236509206 -0.0
  outer loop
    vertex 10.722805775925266 9.78293450818141 7.0
    vertex 10.852676325181285 9.469399266814689 1.4099832412739487e-15
    vertex 10.852676325181285 9.469399266814689 7.0
  endloop
endfacet
facet normal -0.923879532511286 -0.38268343236509206 -0.0
  outer loop
    vertex 10.852676325181285 9.469399266814689 1.4099832412739487e-15
    vertex 10.722805775925266 9.78293450818141 7.0
    vertex 10.722805775925266 9.78293450818141 1.4099832412739487e-15
  endloop
endfacet
facet normal -0.9914448613738107 -0.13052619222005 -0.0
  outer loop
    vertex 10.852676325181285 9.469399266814689 7.0
    vertex 10.896972751005496 9.132934508181412 1.4099832412739487e-15
    vertex 10.896972751005496 9.132934508181412 7.0
  endloop
endfacet
facet normal -0.9914448613738107 -0.13052619222005 -0.0
  outer loop
    vertex 10.896972751005496 9.132934508181412 1.4099832412739487e-15
    vertex 10.852676325181285 9.469399266814689 7.0
    vertex 10.852676325181285 9.469399266814689 1.4099832412739487e-15
  endloop
endfacet
facet normal -0.9914448613738107 0.13052619222005 0.0
  outer loop
    vertex 10.896972751005496 9.132934508181412 7.0
    vertex 10.852676325181285 8.796469749548134 1.4099832412739487e-15
    vertex 10.852676325181285 8.796469749548134 7.0
  endloop
endfacet
facet normal -0.9914448613738107 0.13052619222005 0.0
  outer loop
    vertex 10.852676325181285 8.796469749548134 1.4099832412739487e-15
    vertex 10.896972751005496 9.132934508181412 7.0
    vertex 10.896972751005496 9.132934508181412 1.4099832412739487e-15
  endloop
endfacet
facet normal -0.923879532511286 0.38268343236509206 0.0
  outer loop
    vertex 10.852676325181285 8.796469749548134 7.0
    vertex 10.722805775925266 8.482934508181412 1.4099832412739487e-15
    vertex 10.722805775925266 8.482934508181412 7.0
  endloop
endfacet
facet normal -0.923879532511286 0.38268343236509206 0.0
  outer loop
    vertex 10.722805775925266 8.482934508181412 1.4099832412739487e-15
    vertex 10.852676325181285 8.796469749548134 7.0
    vertex 10.852676325181285 8.796469749548134 1.4099832412739487e-15
  endloop
endfacet
facet normal 0.9914448613738102 -0.0 -0.13052619222005407
  outer loop
    vertex 8.565084622134297 4.0000000000000036 13.801846087148139
    vertex 8.60938104795851 4.229949723821846e-15 14.138310845781417
    vertex 8.565084622134297 4.229949723821846e-15 13.801846087148139
  endloop
endfacet
facet normal 0.9914448613738102 -0.0 -0.13052619222005407
  outer loop
    vertex 8.60938104795851 4.229949723821846e-15 14.138310845781417
    vertex 8.565084622134297 4.0000000000000036 13.801846087148139
    vertex 8.60938104795851 4.0000000000000036 14.138310845781417
  endloop
endfacet
facet normal 0.923879532511288 -0.0 -0.382683432365087
  outer loop
    vertex 8.60938104795851 4.0000000000000036 14.138310845781417
    vertex 8.739251597214528 4.229949723821846e-15 14.451846087148141
    vertex 8.60938104795851 4.229949723821846e-15 14.138310845781417
  endloop
endfacet
facet normal 0.923879532511288 -0.0 -0.382683432365087
  outer loop
    vertex 8.739251597214528 4.229949723821846e-15 14.451846087148141
    vertex 8.60938104795851 4.0000000000000036 14.138310845781417
    vertex 8.739251597214528 4.0000000000000036 14.451846087148141
  endloop
endfacet
facet normal 0.7933533402912347 -0.0 -0.6087614290087212
  outer loop
    vertex 8.739251597214528 4.0000000000000036 14.451846087148141
    vertex 8.945845806591786 4.229949723821846e-15 14.721084902690652
    vertex 8.739251597214528 4.229949723821846e-15 14.451846087148141
  endloop
endfacet
facet normal 0.7933533402912347 -0.0 -0.6087614290087212
  outer loop
    vertex 8.945845806591786 4.229949723821846e-15 14.721084902690652
    vertex 8.739251597214528 4.0000000000000036 14.451846087148141
    vertex 8.945845806591786 4.0000000000000036 14.721084902690652
  endloop
endfacet
facet normal 0.6087614290087172 -0.0 -0.7933533402912379
  outer loop
    vertex 9.215084622134299 4.0000000000000036 14.92767911206791
    vertex 8.945845806591786 4.229949723821846e-15 14.721084902690652
    vertex 8.945845806591786 4.0000000000000036 14.721084902690652
  endloop
endfacet
facet normal 0.6087614290087172 -0.0 -0.7933533402912379
  outer loop
    vertex 8.945845806591786 4.229949723821846e-15 14.721084902690652
    vertex 9.215084622134299 4.0000000000000036 14.92767911206791
    vertex 9.215084622134299 4.229949723821846e-15 14.92767911206791
  endloop
endfacet
facet normal 0.38268343236509206 -0.0 -0.923879532511286
  outer loop
    vertex 9.528619863501023 4.0000000000000036 15.057549661323929
    vertex 9.215084622134299 4.229949723821846e-15 14.92767911206791
    vertex 9.215084622134299 4.0000000000000036 14.92767911206791
  endloop
endfacet
facet normal 0.38268343236509206 -0.0 -0.923879532511286
  outer loop
    vertex 9.215084622134299 4.229949723821846e-15 14.92767911206791
    vertex 9.528619863501023 4.0000000000000036 15.057549661323929
    vertex 9.528619863501023 4.229949723821846e-15 15.057549661323929
  endloop
endfacet
facet normal 0.13052619222005055 -0.0 -0.9914448613738107
  outer loop
    vertex 9.865084622134297 4.0000000000000036 15.10184608714814
    vertex 9.528619863501023 4.229949723821846e-15 15.057549661323929
    vertex 9.528619863501023 4.0000000000000036 15.057549661323929
  endloop
endfacet
facet normal 0.13052619222005055 -0.0 -0.9914448613738107
  outer loop
    vertex 9.528619863501023 4.229949723821846e-15 15.057549661323929
    vertex 9.865084622134297 4.0000000000000036 15.10184608714814
    vertex 9.865084622134297 4.229949723821846e-15 15.10184608714814
  endloop
endfacet
facet normal -0.13052619222005 -0.0 -0.9914448613738107
  outer loop
    vertex 10.201549380767576 4.0000000000000036 15.057549661323929
    vertex 9.865084622134297 4.229949723821846e-15 15.10184608714814
    vertex 9.865084622134297 4.0000000000000036 15.10184608714814
  endloop
endfacet
facet normal -0.13052619222005 -0.0 -0.9914448613738107
  outer loop
    vertex 9.865084622134297 4.229949723821846e-15 15.10184608714814
    vertex 10.201549380767576 4.0000000000000036 15.057549661323929
    vertex 10.201549380767576 4.229949723821846e-15 15.057549661323929
  endloop
endfacet
facet normal -0.38268343236509206 -0.0 -0.923879532511286
  outer loop
    vertex 10.515084622134298 4.0000000000000036 14.92767911206791
    vertex 10.201549380767576 4.229949723821846e-15 15.057549661323929
    vertex 10.201549380767576 4.0000000000000036 15.057549661323929
  endloop
endfacet
facet normal -0.38268343236509206 -0.0 -0.923879532511286
  outer loop
    vertex 10.201549380767576 4.229949723821846e-15 15.057549661323929
    vertex 10.515084622134298 4.0000000000000036 14.92767911206791
    vertex 10.515084622134298 4.229949723821846e-15 14.92767911206791
  endloop
endfacet
facet normal -0.6087614290087192 -0.0 -0.7933533402912363
  outer loop
    vertex 10.784323437676811 4.0000000000000036 14.721084902690652
    vertex 10.515084622134298 4.229949723821846e-15 14.92767911206791
    vertex 10.515084622134298 4.0000000000000036 14.92767911206791
  endloop
endfacet
facet normal -0.6087614290087192 -0.0 -0.7933533402912363
  outer loop
    vertex 10.515084622134298 4.229949723821846e-15 14.92767911206791
    vertex 10.784323437676811 4.0000000000000036 14.721084902690652
    vertex 10.784323437676811 4.229949723821846e-15 14.721084902690652
  endloop
endfacet
facet normal -0.7933533402912379 -0.0 -0.6087614290087172
  outer loop
    vertex 10.784323437676811 4.0000000000000036 14.721084902690652
    vertex 10.990917647054069 4.229949723821846e-15 14.451846087148137
    vertex 10.784323437676811 4.229949723821846e-15 14.721084902690652
  endloop
endfacet
facet normal -0.7933533402912379 -0.0 -0.6087614290087172
  outer loop
    vertex 10.990917647054069 4.229949723821846e-15 14.451846087148137
    vertex 10.784323437676811 4.0000000000000036 14.721084902690652
    vertex 10.990917647054069 4.0000000000000036 14.451846087148137
  endloop
endfacet
facet normal -0.9238795325112852 -0.0 -0.3826834323650935
  outer loop
    vertex 10.990917647054069 4.0000000000000036 14.451846087148137
    vertex 11.120788196310087 4.229949723821846e-15 14.138310845781417
    vertex 10.990917647054069 4.229949723821846e-15 14.451846087148137
  endloop
endfacet
facet normal -0.9238795325112852 -0.0 -0.3826834323650935
  outer loop
    vertex 11.120788196310087 4.229949723821846e-15 14.138310845781417
    vertex 10.990917647054069 4.0000000000000036 14.451846087148137
    vertex 11.120788196310087 4.0000000000000036 14.138310845781417
  endloop
endfacet
facet normal -0.9914448613738107 -0.0 -0.13052619222005
  outer loop
    vertex 11.120788196310087 4.0000000000000036 14.138310845781417
    vertex 11.165084622134298 4.229949723821846e-15 13.801846087148139
    vertex 11.120788196310087 4.229949723821846e-15 14.138310845781417
  endloop
endfacet
facet normal -0.9914448613738107 -0.0 -0.13052619222005
  outer loop
    vertex 11.165084622134298 4.229949723821846e-15 13.801846087148139
    vertex 11.120788196310087 4.0000000000000036 14.138310845781417
    vertex 11.165084622134298 4.0000000000000036 13.801846087148139
  endloop
endfacet
facet normal -0.9914448613738102 -0.0 0.13052619222005407
  outer loop
    vertex 11.165084622134298 4.0000000000000036 13.801846087148139
    vertex 11.120788196310086 4.229949723821846e-15 13.465381328514862
    vertex 11.165084622134298 4.229949723821846e-15 13.801846087148139
  endloop
endfacet
facet normal -0.9914448613738102 -0.0 0.13052619222005407
  outer loop
    vertex 11.120788196310086 4.229949723821846e-15 13.465381328514862
    vertex 11.165084622134298 4.0000000000000036 13.801846087148139
    vertex 11.120788196310086 4.0000000000000036 13.465381328514862
  endloop
endfacet
facet normal -0.923879532511288 -0.0 0.382683432365087
  outer loop
    vertex 11.120788196310086 4.0000000000000036 13.465381328514862
    vertex 10.990917647054069 4.229949723821846e-15 13.151846087148138
    vertex 11.120788196310086 4.229949723821846e-15 13.465381328514862
  endloop
endfacet
facet normal -0.923879532511288 -0.0 0.382683432365087
  outer loop
    vertex 10.990917647054069 4.229949723821846e-15 13.151846087148138
    vertex 11.120788196310086 4.0000000000000036 13.465381328514862
    vertex 10.990917647054069 4.0000000000000036 13.151846087148138
  endloop
endfacet
facet normal -0.7933533402912347 -0.0 0.6087614290087212
  outer loop
    vertex 10.990917647054069 4.0000000000000036 13.151846087148138
    vertex 10.784323437676811 4.229949723821846e-15 12.882607271605627
    vertex 10.990917647054069 4.229949723821846e-15 13.151846087148138
  endloop
endfacet
facet normal -0.7933533402912347 -0.0 0.6087614290087212
  outer loop
    vertex 10.784323437676811 4.229949723821846e-15 12.882607271605627
    vertex 10.990917647054069 4.0000000000000036 13.151846087148138
    vertex 10.784323437676811 4.0000000000000036 12.882607271605627
  endloop
endfacet
facet normal -0.6087614290087192 -0.0 0.7933533402912363
  outer loop
    vertex 10.784323437676811 4.229949723821846e-15 12.882607271605627
    vertex 10.515084622134298 4.0000000000000036 12.67601306222837
    vertex 10.515084622134298 4.229949723821846e-15 12.67601306222837
  endloop
endfacet
facet normal -0.6087614290087192 -0.0 0.7933533402912363
  outer loop
    vertex 10.515084622134298 4.0000000000000036 12.67601306222837
    vertex 10.784323437676811 4.229949723821846e-15 12.882607271605627
    vertex 10.784323437676811 4.0000000000000036 12.882607271605627
  endloop
endfacet
facet normal -0.38268343236509206 -0.0 0.923879532511286
  outer loop
    vertex 10.515084622134298 4.229949723821846e-15 12.67601306222837
    vertex 10.201549380767576 4.0000000000000036 12.546142512972349
    vertex 10.201549380767576 4.229949723821846e-15 12.546142512972349
  endloop
endfacet
facet normal -0.38268343236509206 -0.0 0.923879532511286
  outer loop
    vertex 10.201549380767576 4.0000000000000036 12.546142512972349
    vertex 10.515084622134298 4.229949723821846e-15 12.67601306222837
    vertex 10.515084622134298 4.0000000000000036 12.67601306222837
  endloop
endfacet
facet normal -0.13052619222005 -0.0 0.9914448613738107
  outer loop
    vertex 10.201549380767576 4.229949723821846e-15 12.546142512972349
    vertex 9.865084622134297 4.0000000000000036 12.501846087148138
    vertex 9.865084622134297 4.229949723821846e-15 12.501846087148138
  endloop
endfacet
facet normal -0.13052619222005 -0.0 0.9914448613738107
  outer loop
    vertex 9.865084622134297 4.0000000000000036 12.501846087148138
    vertex 10.201549380767576 4.229949723821846e-15 12.546142512972349
    vertex 10.201549380767576 4.0000000000000036 12.546142512972349
  endloop
endfacet
facet normal 0.13052619222005 0.0 0.9914448613738107
  outer loop
    vertex 9.865084622134297 4.229949723821846e-15 12.501846087148138
    vertex 9.52861986350102 4.0000000000000036 12.546142512972349
    vertex 9.52861986350102 4.229949723821846e-15 12.546142512972349
  endloop
endfacet
facet normal 0.13052619222005 0.0 0.9914448613738107
  outer loop
    vertex 9.52861986350102 4.0000000000000036 12.546142512972349
    vertex 9.865084622134297 4.229949723821846e-15 12.501846087148138
    vertex 9.865084622134297 4.0000000000000036 12.501846087148138
  endloop
endfacet
facet normal 0.38268343236509206 0.0 0.923879532511286
  outer loop
    vertex 9.52861986350102 4.229949723821846e-15 12.546142512972349
    vertex 9.215084622134297 4.0000000000000036 12.67601306222837
    vertex 9.215084622134297 4.229949723821846e-15 12.67601306222837
  endloop
endfacet
facet normal 0.38268343236509206 0.0 0.923879532511286
  outer loop
    vertex 9.215084622134297 4.0000000000000036 12.67601306222837
    vertex 9.52861986350102 4.229949723821846e-15 12.546142512972349
    vertex 9.52861986350102 4.0000000000000036 12.546142512972349
  endloop
endfacet
facet normal 0.6087614290087192 0.0 0.7933533402912363
  outer loop
    vertex 9.215084622134297 4.229949723821846e-15 12.67601306222837
    vertex 8.945845806591786 4.0000000000000036 12.882607271605627
    vertex 8.945845806591786 4.229949723821846e-15 12.882607271605627
  endloop
endfacet
facet normal 0.6087614290087192 0.0 0.7933533402912363
  outer loop
    vertex 8.945845806591786 4.0000000000000036 12.882607271605627
    vertex 9.215084622134297 4.229949723821846e-15 12.67601306222837
    vertex 9.215084622134297 4.0000000000000036 12.67601306222837
  endloop
endfacet
facet normal 0.7933533402912379 0.0 0.6087614290087172
  outer loop
    vertex 8.945845806591786 4.0000000000000036 12.882607271605627
    vertex 8.739251597214528 4.229949723821846e-15 13.15184608714814
    vertex 8.945845806591786 4.229949723821846e-15 12.882607271605627
  endloop
endfacet
facet normal 0.7933533402912379 0.0 0.6087614290087172
  outer loop
    vertex 8.739251597214528 4.229949723821846e-15 13.15184608714814
    vertex 8.945845806591786 4.0000000000000036 12.882607271605627
    vertex 8.739251597214528 4.0000000000000036 13.15184608714814
  endloop
endfacet
facet normal 0.9238795325112852 0.0 0.3826834323650935
  outer loop
    vertex 8.739251597214528 4.0000000000000036 13.15184608714814
    vertex 8.609381047958507 4.229949723821846e-15 13.465381328514862
    vertex 8.739251597214528 4.229949723821846e-15 13.15184608714814
  endloop
endfacet
facet normal 0.9238795325112852 0.0 0.3826834323650935
  outer loop
    vertex 8.609381047958507 4.229949723821846e-15 13.465381328514862
    vertex 8.739251597214528 4.0000000000000036 13.15184608714814
    vertex 8.609381047958507 4.0000000000000036 13.465381328514862
  endloop
endfacet
facet normal 0.9914448613738107 0.0 0.13052619222005
  outer loop
    vertex 8.609381047958507 4.0000000000000036 13.465381328514862
    vertex 8.565084622134297 4.229949723821846e-15 13.801846087148139
    vertex 8.609381047958507 4.229949723821846e-15 13.465381328514862
  endloop
endfacet
facet normal 0.9914448613738107 0.0 0.13052619222005
  outer loop
    vertex 8.565084622134297 4.229949723821846e-15 13.801846087148139
    vertex 8.609381047958507 4.0000000000000036 13.465381328514862
    vertex 8.565084622134297 4.0000000000000036 13.801846087148139
  endloop
endfacet
facet normal -0.0 0.13052619222005 -0.9914448613738107
  outer loop
    vertex 4.0000000000000036 9.464522877913309 12.468595150524752
    vertex 4.229949723821846e-15 9.128058119280032 12.424298724700542
    vertex 4.229949723821846e-15 9.464522877913309 12.468595150524752
  endloop
endfacet
facet normal -0.0 0.13052619222005 -0.9914448613738107
  outer loop
    vertex 4.229949723821846e-15 9.128058119280032 12.424298724700542
    vertex 4.0000000000000036 9.464522877913309 12.468595150524752
    vertex 4.0000000000000036 9.128058119280032 12.424298724700542
  endloop
endfacet
facet normal -0.0 0.38268343236509206 -0.923879532511286
  outer loop
    vertex 4.0000000000000036 9.128058119280032 12.424298724700542
    vertex 4.229949723821846e-15 8.814522877913308 12.294428175444521
    vertex 4.229949723821846e-15 9.128058119280032 12.424298724700542
  endloop
endfacet
facet normal -0.0 0.38268343236509206 -0.923879532511286
  outer loop
    vertex 4.229949723821846e-15 8.814522877913308 12.294428175444521
    vertex 4.0000000000000036 9.128058119280032 12.424298724700542
    vertex 4.0000000000000036 8.814522877913308 12.294428175444521
  endloop
endfacet
facet normal -0.0 0.6087614290087219 -0.7933533402912344
  outer loop
    vertex 4.0000000000000036 8.814522877913308 12.294428175444521
    vertex 4.229949723821846e-15 8.545284062370797 12.087833966067262
    vertex 4.229949723821846e-15 8.814522877913308 12.294428175444521
  endloop
endfacet
facet normal -0.0 0.6087614290087219 -0.7933533402912344
  outer loop
    vertex 4.229949723821846e-15 8.545284062370797 12.087833966067262
    vertex 4.0000000000000036 8.814522877913308 12.294428175444521
    vertex 4.0000000000000036 8.545284062370797 12.087833966067262
  endloop
endfacet
facet normal -0.0 0.7933533402912347 -0.6087614290087212
  outer loop
    vertex 4.229949723821846e-15 8.545284062370797 12.087833966067262
    vertex 4.0000000000000036 8.33868985299354 11.818595150524752
    vertex 4.229949723821846e-15 8.33868985299354 11.818595150524752
  endloop
endfacet
facet normal -0.0 0.7933533402912347 -0.6087614290087212
  outer loop
    vertex 4.0000000000000036 8.33868985299354 11.818595150524752
    vertex 4.229949723821846e-15 8.545284062370797 12.087833966067262
    vertex 4.0000000000000036 8.545284062370797 12.087833966067262
  endloop
endfacet
facet normal -0.0 0.9238795325112865 -0.38268343236509056
  outer loop
    vertex 4.229949723821846e-15 8.33868985299354 11.818595150524752
    vertex 4.0000000000000036 8.208819303737519 11.505059909158026
    vertex 4.229949723821846e-15 8.208819303737519 11.505059909158026
  endloop
endfacet
facet normal -0.0 0.9238795325112865 -0.38268343236509056
  outer loop
    vertex 4.0000000000000036 8.208819303737519 11.505059909158026
    vertex 4.229949723821846e-15 8.33868985299354 11.818595150524752
    vertex 4.0000000000000036 8.33868985299354 11.818595150524752
  endloop
endfacet
facet normal -0.0 0.9914448613738107 -0.13052619222005055
  outer loop
    vertex 4.229949723821846e-15 8.208819303737519 11.505059909158026
    vertex 4.0000000000000036 8.164522877913308 11.168595150524752
    vertex 4.229949723821846e-15 8.164522877913308 11.168595150524752
  endloop
endfacet
facet normal -0.0 0.9914448613738107 -0.13052619222005055
  outer loop
    vertex 4.0000000000000036 8.164522877913308 11.168595150524752
    vertex 4.229949723821846e-15 8.208819303737519 11.505059909158026
    vertex 4.0000000000000036 8.208819303737519 11.505059909158026
  endloop
endfacet
facet normal 0.0 0.9914448613738102 0.13052619222005407
  outer loop
    vertex 4.229949723821846e-15 8.164522877913308 11.168595150524752
    vertex 4.0000000000000036 8.20881930373752 10.832130391891473
    vertex 4.229949723821846e-15 8.20881930373752 10.832130391891473
  endloop
endfacet
facet normal 0.0 0.9914448613738102 0.13052619222005407
  outer loop
    vertex 4.0000000000000036 8.20881930373752 10.832130391891473
    vertex 4.229949723821846e-15 8.164522877913308 11.168595150524752
    vertex 4.0000000000000036 8.164522877913308 11.168595150524752
  endloop
endfacet
facet normal 0.0 0.9238795325112873 0.38268343236508845
  outer loop
    vertex 4.229949723821846e-15 8.20881930373752 10.832130391891473
    vertex 4.0000000000000036 8.33868985299354 10.518595150524751
    vertex 4.229949723821846e-15 8.33868985299354 10.518595150524751
  endloop
endfacet
facet normal 0.0 0.9238795325112873 0.38268343236508845
  outer loop
    vertex 4.0000000000000036 8.33868985299354 10.518595150524751
    vertex 4.229949723821846e-15 8.20881930373752 10.832130391891473
    vertex 4.0000000000000036 8.20881930373752 10.832130391891473
  endloop
endfacet
facet normal 0.0 0.7933533402912363 0.6087614290087192
  outer loop
    vertex 4.229949723821846e-15 8.33868985299354 10.518595150524751
    vertex 4.0000000000000036 8.545284062370797 10.249356334982238
    vertex 4.229949723821846e-15 8.545284062370797 10.249356334982238
  endloop
endfacet
facet normal 0.0 0.7933533402912363 0.6087614290087192
  outer loop
    vertex 4.0000000000000036 8.545284062370797 10.249356334982238
    vertex 4.229949723821846e-15 8.33868985299354 10.518595150524751
    vertex 4.0000000000000036 8.33868985299354 10.518595150524751
  endloop
endfacet
facet normal 0.0 0.6087614290087192 0.7933533402912363
  outer loop
    vertex 4.0000000000000036 8.545284062370797 10.249356334982238
    vertex 4.229949723821846e-15 8.814522877913308 10.04276212560498
    vertex 4.229949723821846e-15 8.545284062370797 10.249356334982238
  endloop
endfacet
facet normal 0.0 0.6087614290087192 0.7933533402912363
  outer loop
    vertex 4.229949723821846e-15 8.814522877913308 10.04276212560498
    vertex 4.0000000000000036 8.545284062370797 10.249356334982238
    vertex 4.0000000000000036 8.814522877913308 10.04276212560498
  endloop
endfacet
facet normal 0.0 0.38268343236509206 0.923879532511286
  outer loop
    vertex 4.0000000000000036 8.814522877913308 10.04276212560498
    vertex 4.229949723821846e-15 9.128058119280032 9.912891576348962
    vertex 4.229949723821846e-15 8.814522877913308 10.04276212560498
  endloop
endfacet
facet normal 0.0 0.38268343236509206 0.923879532511286
  outer loop
    vertex 4.229949723821846e-15 9.128058119280032 9.912891576348962
    vertex 4.0000000000000036 8.814522877913308 10.04276212560498
    vertex 4.0000000000000036 9.128058119280032 9.912891576348962
  endloop
endfacet
facet normal 0.0 0.13052619222005 0.9914448613738107
  outer loop
    vertex 4.0000000000000036 9.128058119280032 9.912891576348962
    vertex 4.229949723821846e-15 9.464522877913309 9.868595150524751
    vertex 4.229949723821846e-15 9.128058119280032 9.912891576348962
  endloop
endfacet
facet normal 0.0 0.13052619222005 0.9914448613738107
  outer loop
    vertex 4.229949723821846e-15 9.464522877913309 9.868595150524751
    vertex 4.0000000000000036 9.128058119280032 9.912891576348962
    vertex 4.0000000000000036 9.464522877913309 9.868595150524751
  endloop
endfacet
facet normal -0.0 -0.13052619222005 0.9914448613738107
  outer loop
    vertex 4.0000000000000036 9.464522877913309 9.868595150524751
    vertex 4.229949723821846e-15 9.800987636546587 9.912891576348962
    vertex 4.229949723821846e-15 9.464522877913309 9.868595150524751
  endloop
endfacet
facet normal -0.0 -0.13052619222005 0.9914448613738107
  outer loop
    vertex 4.229949723821846e-15 9.800987636546587 9.912891576348962
    vertex 4.0000000000000036 9.464522877913309 9.868595150524751
    vertex 4.0000000000000036 9.800987636546587 9.912891576348962
  endloop
endfacet
facet normal -0.0 -0.38268343236509206 0.923879532511286
  outer loop
    vertex 4.0000000000000036 9.800987636546587 9.912891576348962
    vertex 4.229949723821846e-15 10.11452287791331 10.04276212560498
    vertex 4.229949723821846e-15 9.800987636546587 9.912891576348962
  endloop
endfacet
facet normal -0.0 -0.38268343236509206 0.923879532511286
  outer loop
    vertex 4.229949723821846e-15 10.11452287791331 10.04276212560498
    vertex 4.0000000000000036 9.800987636546587 9.912891576348962
    vertex 4.0000000000000036 10.11452287791331 10.04276212560498
  endloop
endfacet
facet normal -0.0 -0.6087614290087192 0.7933533402912363
  outer loop
    vertex 4.0000000000000036 10.11452287791331 10.04276212560498
    vertex 4.229949723821846e-15 10.38376169345582 10.249356334982238
    vertex 4.229949723821846e-15 10.11452287791331 10.04276212560498
  endloop
endfacet
facet normal -0.0 -0.6087614290087192 0.7933533402912363
  outer loop
    vertex 4.229949723821846e-15 10.38376169345582 10.249356334982238
    vertex 4.0000000000000036 10.11452287791331 10.04276212560498
    vertex 4.0000000000000036 10.38376169345582 10.249356334982238
  endloop
endfacet
facet normal -0.0 -0.7933533402912363 0.6087614290087192
  outer loop
    vertex 4.0000000000000036 10.59035590283308 10.518595150524751
    vertex 4.229949723821846e-15 10.38376169345582 10.249356334982238
    vertex 4.0000000000000036 10.38376169345582 10.249356334982238
  endloop
endfacet
facet normal -0.0 -0.7933533402912363 0.6087614290087192
  outer loop
    vertex 4.229949723821846e-15 10.38376169345582 10.249356334982238
    vertex 4.0000000000000036 10.59035590283308 10.518595150524751
    vertex 4.229949723821846e-15 10.59035590283308 10.518595150524751
  endloop
endfacet
facet normal -0.0 -0.923879532511286 0.38268343236509206
  outer loop
    vertex 4.0000000000000036 10.720226452089099 10.832130391891473
    vertex 4.229949723821846e-15 10.59035590283308 10.518595150524751
    vertex 4.0000000000000036 10.59035590283308 10.518595150524751
  endloop
endfacet
facet normal -0.0 -0.923879532511286 0.38268343236509206
  outer loop
    vertex 4.229949723821846e-15 10.59035590283308 10.518595150524751
    vertex 4.0000000000000036 10.720226452089099 10.832130391891473
    vertex 4.229949723821846e-15 10.720226452089099 10.832130391891473
  endloop
endfacet
facet normal -0.0 -0.9914448613738107 0.13052619222005
  outer loop
    vertex 4.0000000000000036 10.76452287791331 11.168595150524752
    vertex 4.229949723821846e-15 10.720226452089099 10.832130391891473
    vertex 4.0000000000000036 10.720226452089099 10.832130391891473
  endloop
endfacet
facet normal -0.0 -0.9914448613738107 0.13052619222005
  outer loop
    vertex 4.229949723821846e-15 10.720226452089099 10.832130391891473
    vertex 4.0000000000000036 10.76452287791331 11.168595150524752
    vertex 4.229949723821846e-15 10.76452287791331 11.168595150524752
  endloop
endfacet
facet normal -0.0 -0.9914448613738102 -0.13052619222005352
  outer loop
    vertex 4.0000000000000036 10.720226452089097 11.50505990915803
    vertex 4.229949723821846e-15 10.76452287791331 11.168595150524752
    vertex 4.0000000000000036 10.76452287791331 11.168595150524752
  endloop
endfacet
facet normal -0.0 -0.9914448613738102 -0.13052619222005352
  outer loop
    vertex 4.229949723821846e-15 10.76452287791331 11.168595150524752
    vertex 4.0000000000000036 10.720226452089097 11.50505990915803
    vertex 4.229949723821846e-15 10.720226452089097 11.50505990915803
  endloop
endfacet
facet normal -0.0 -0.9238795325112866 -0.3826834323650899
  outer loop
    vertex 4.0000000000000036 10.59035590283308 11.818595150524752
    vertex 4.229949723821846e-15 10.720226452089097 11.50505990915803
    vertex 4.0000000000000036 10.720226452089097 11.50505990915803
  endloop
endfacet
facet normal -0.0 -0.9238795325112866 -0.3826834323650899
  outer loop
    vertex 4.229949723821846e-15 10.720226452089097 11.50505990915803
    vertex 4.0000000000000036 10.59035590283308 11.818595150524752
    vertex 4.229949723821846e-15 10.59035590283308 11.818595150524752
  endloop
endfacet
facet normal -0.0 -0.7933533402912363 -0.6087614290087192
  outer loop
    vertex 4.0000000000000036 10.38376169345582 12.087833966067263
    vertex 4.229949723821846e-15 10.59035590283308 11.818595150524752
    vertex 4.0000000000000036 10.59035590283308 11.818595150524752
  endloop
endfacet
facet normal -0.0 -0.7933533402912363 -0.6087614290087192
  outer loop
    vertex 4.229949723821846e-15 10.59035590283308 11.818595150524752
    vertex 4.0000000000000036 10.38376169345582 12.087833966067263
    vertex 4.229949723821846e-15 10.38376169345582 12.087833966067263
  endloop
endfacet
facet normal -0.0 -0.6087614290087172 -0.7933533402912379
  outer loop
    vertex 4.0000000000000036 10.38376169345582 12.087833966067263
    vertex 4.229949723821846e-15 10.114522877913307 12.294428175444521
    vertex 4.229949723821846e-15 10.38376169345582 12.087833966067263
  endloop
endfacet
facet normal -0.0 -0.6087614290087172 -0.7933533402912379
  outer loop
    vertex 4.229949723821846e-15 10.114522877913307 12.294428175444521
    vertex 4.0000000000000036 10.38376169345582 12.087833966067263
    vertex 4.0000000000000036 10.114522877913307 12.294428175444521
  endloop
endfacet
facet normal -0.0 -0.38268343236509206 -0.923879532511286
  outer loop
    vertex 4.0000000000000036 10.114522877913307 12.294428175444521
    vertex 4.229949723821846e-15 9.800987636546585 12.424298724700542
    vertex 4.229949723821846e-15 10.114522877913307 12.294428175444521
  endloop
endfacet
facet normal -0.0 -0.38268343236509206 -0.923879532511286
  outer loop
    vertex 4.229949723821846e-15 9.800987636546585 12.424298724700542
    vertex 4.0000000000000036 10.114522877913307 12.294428175444521
    vertex 4.0000000000000036 9.800987636546585 12.424298724700542
  endloop
endfacet
facet normal -0.0 -0.13052619222005055 -0.9914448613738107
  outer loop
    vertex 4.0000000000000036 9.800987636546585 12.424298724700542
    vertex 4.229949723821846e-15 9.464522877913309 12.468595150524752
    vertex 4.229949723821846e-15 9.800987636546585 12.424298724700542
  endloop
endfacet
facet normal -0.0 -0.13052619222005055 -0.9914448613738107
  outer loop
    vertex 4.229949723821846e-15 9.464522877913309 12.468595150524752
    vertex 4.0000000000000036 9.800987636546585 12.424298724700542
    vertex 4.0000000000000036 9.464522877913309 12.468595150524752
  endloop
endfacet
endsolid boxBracket
